<?xml version="1.0" encoding="utf-8" ?>
<svg baseProfile="full" height="300px" version="1.1" width="1200px" xmlns="http://www.w3.org/2000/svg" xmlns:ev="http://www.w3.org/2001/xml-events" xmlns:xlink="http://www.w3.org/1999/xlink"><defs /><rect fill="#2C3E50" height="300" width="1200" x="0" y="0" /><text fill="#ECF0F1" font-family="Arial" font-size="36px" text-anchor="middle" x="50%" y="40%">Fraud Detection in Financial Transactions</text><text fill="#BDC3C7" font-family="Arial" font-size="24px" text-anchor="middle" x="50%" y="60%">Using Machine Learning to Detect Anomalies</text><line stroke="#E74C3C" stroke-width="2" x1="10" x2="70" y1="100" y2="200" /><line stroke="#3498DB" stroke-width="2" x1="70" x2="40" y1="200" y2="150" /><line stroke="#F1C40F" stroke-width="2" x1="40" x2="100" y1="150" y2="250" /><line stroke="#E74C3C" stroke-width="2" x1="130" x2="190" y1="100" y2="200" /><line stroke="#3498DB" stroke-width="2" x1="190" x2="160" y1="200" y2="150" /><line stroke="#F1C40F" stroke-width="2" x1="160" x2="220" y1="150" y2="250" /><line stroke="#E74C3C" stroke-width="2" x1="250" x2="310" y1="100" y2="200" /><line stroke="#3498DB" stroke-width="2" x1="310" x2="280" y1="200" y2="150" /><line stroke="#F1C40F" stroke-width="2" x1="280" x2="340" y1="150" y2="250" /><line stroke="#E74C3C" stroke-width="2" x1="370" x2="430" y1="100" y2="200" /><line stroke="#3498DB" stroke-width="2" x1="430" x2="400" y1="200" y2="150" /><line stroke="#F1C40F" stroke-width="2" x1="400" x2="460" y1="150" y2="250" /><line stroke="#E74C3C" stroke-width="2" x1="490" x2="550" y1="100" y2="200" /><line stroke="#3498DB" stroke-width="2" x1="550" x2="520" y1="200" y2="150" /><line stroke="#F1C40F" stroke-width="2" x1="520" x2="580" y1="150" y2="250" /><line stroke="#E74C3C" stroke-width="2" x1="610" x2="670" y1="100" y2="200" /><line stroke="#3498DB" stroke-width="2" x1="670" x2="640" y1="200" y2="150" /><line stroke="#F1C40F" stroke-width="2" x1="640" x2="700" y1="150" y2="250" /><line stroke="#E74C3C" stroke-width="2" x1="730" x2="790" y1="100" y2="200" /><line stroke="#3498DB" stroke-width="2" x1="790" x2="760" y1="200" y2="150" /><line stroke="#F1C40F" stroke-width="2" x1="760" x2="820" y1="150" y2="250" /><line stroke="#E74C3C" stroke-width="2" x1="850" x2="910" y1="100" y2="200" /><line stroke="#3498DB" stroke-width="2" x1="910" x2="880" y1="200" y2="150" /><line stroke="#F1C40F" stroke-width="2" x1="880" x2="940" y1="150" y2="250" /><line stroke="#E74C3C" stroke-width="2" x1="970" x2="1030" y1="100" y2="200" /><line stroke="#3498DB" stroke-width="2" x1="1030" x2="1000" y1="200" y2="150" /><line stroke="#F1C40F" stroke-width="2" x1="1000" x2="1060" y1="150" y2="250" /><line stroke="#E74C3C" stroke-width="2" x1="1090" x2="1150" y1="100" y2="200" /><line stroke="#3498DB" stroke-width="2" x1="1150" x2="1120" y1="200" y2="150" /><line stroke="#F1C40F" stroke-width="2" x1="1120" x2="1180" y1="150" y2="250" /></svg>